<?xml version="1.0" encoding="UTF-8"?>
<!DOCTYPE svg PUBLIC "-//W3C//DTD SVG 1.0//EN" "http://www.w3.org/TR/2001/REC-SVG-20010904/DTD/svg10.dtd">
<!-- Creator: CorelDRAW X7 -->
<svg xmlns="http://www.w3.org/2000/svg" xml:space="preserve" width="256px" height="256px" version="1.0" shape-rendering="geometricPrecision" text-rendering="geometricPrecision" image-rendering="optimizeQuality" fill-rule="evenodd" clip-rule="evenodd"
viewBox="0 0 3045 3047"
 xmlns:xlink="http://www.w3.org/1999/xlink">
 <g id="Layer_x0020_1">
  <metadata id="CorelCorpID_0Corel-Layer"/>
  <rect fill="#72B635" width="3045" height="3047" rx="96" ry="134"/>
  <path fill="white" fill-rule="nonzero" d="M558 1935l164 -276 221 0c26,0 54,0 82,0 29,0 53,1 74,3 -12,-19 -26,-43 -42,-72 -17,-30 -32,-57 -47,-83l-158 -283 -412 711 -322 0 563 -969c19,-31 42,-58 70,-83 28,-24 64,-37 107,-37 41,0 75,12 103,35 27,23 51,51 70,85l549 969 -1022 0z"/>
  <path fill="white" fill-rule="nonzero" d="M1187 1027c-33,2 0,-105 58,-147 33,-24 72,-36 113,-36 43,0 78,10 108,30 29,21 53,48 72,84l171 302c24,42 44,78 62,110 17,31 33,59 46,84 13,24 25,47 35,67 10,20 20,40 29,59 9,-19 18,-38 28,-58 11,-20 22,-42 35,-67 14,-26 29,-53 47,-84 17,-31 38,-68 61,-109l171 -304c19,-35 43,-62 73,-83 29,-21 65,-31 109,-31 41,0 79,12 112,36 34,24 58,61 73,111l270 941 -329 0 -101 -373c-17,-60 -31,-114 -43,-160 -11,-46 -21,-90 -30,-134 -18,37 -38,79 -61,124 -22,45 -51,103 -87,172l-144 269c-14,27 -28,48 -42,63 -15,16 -29,28 -44,36 -15,9 -31,14 -48,17 -17,3 -36,4 -56,4 -20,0 -39,-1 -56,-4 -17,-3 -33,-8 -48,-17 -15,-8 -29,-20 -44,-36 -14,-15 -28,-36 -42,-63 -144,-271 -288,-539 -438,-806l-60 3z"/>
 </g>
</svg>
